<svg width="131" height="102" viewBox="0 0 131 102" fill="none" xmlns="http://www.w3.org/2000/svg">
<rect width="131" height="102" rx="4" fill="white"/>
<rect x="14" y="14" width="103" height="14" rx="7" fill="#437E47" fill-opacity="0.07"/>
<mask id="mask0_4420_166" style="mask-type:alpha" maskUnits="userSpaceOnUse" x="105" y="18" width="7" height="7">
<rect x="105" y="18" width="7" height="7" fill="#437E47"/>
</mask>
<g mask="url(#mask0_4420_166)">
<path d="M111.728 24.7278C111.577 24.8781 111.334 24.8781 111.183 24.7278L109.006 22.55C108.811 22.7056 108.588 22.8287 108.335 22.9194C108.082 23.0102 107.813 23.0556 107.528 23.0556C106.821 23.0556 106.223 22.8109 105.734 22.3217C105.245 21.8322 105 21.2343 105 20.5278C105 19.8213 105.245 19.2233 105.734 18.7338C106.223 18.2446 106.821 18 107.528 18C108.234 18 108.832 18.2446 109.322 18.7338C109.811 19.2233 110.056 19.8213 110.056 20.5278C110.056 20.813 110.01 21.0819 109.919 21.3347C109.829 21.5875 109.706 21.8111 109.55 22.0056L111.728 24.1833C111.878 24.3337 111.878 24.5774 111.728 24.7278V24.7278ZM107.528 22.2778C108.014 22.2778 108.427 22.1077 108.768 21.7676C109.108 21.4271 109.278 21.0139 109.278 20.5278C109.278 20.0417 109.108 19.6284 108.768 19.288C108.427 18.9479 108.014 18.7778 107.528 18.7778C107.042 18.7778 106.628 18.9479 106.288 19.288C105.948 19.6284 105.778 20.0417 105.778 20.5278C105.778 21.0139 105.948 21.4271 106.288 21.7676C106.628 22.1077 107.042 22.2778 107.528 22.2778Z" fill="#437E47" fill-opacity="0.5"/>
</g>
<rect x="15.4318" y="35.4318" width="101.136" height="51.1364" rx="1.29545" stroke="#437E47" stroke-opacity="0.1" stroke-width="0.863636"/>
<rect x="38.4318" y="48.4318" width="68.1364" height="1.13636" rx="0.568182" fill="#BDD6BD" stroke="#BDD6BD" stroke-width="0.863636"/>
<rect x="38" y="42" width="23" height="3" rx="1.5" fill="#437E47" fill-opacity="0.6"/>
<path d="M25 42.7273C25 41.7733 25.7733 41 26.7273 41H33.321C34.275 41 35.0483 41.7733 35.0483 42.7273V49.321C35.0483 50.275 34.275 51.0483 33.321 51.0483H26.7273C25.7733 51.0483 25 50.275 25 49.321V42.7273Z" fill="#437E47" fill-opacity="0.6"/>
<rect x="38.4318" y="63.4318" width="68.1364" height="1.13636" rx="0.568182" fill="#BDD6BD" stroke="#BDD6BD" stroke-width="0.863636"/>
<rect x="38" y="57" width="23" height="3" rx="1.5" fill="#437E47" fill-opacity="0.6"/>
<path d="M25 57.7998C25 56.8458 25.7733 56.0725 26.7273 56.0725H33.321C34.275 56.0725 35.0483 56.8458 35.0483 57.7998V64.3935C35.0483 65.3475 34.275 66.1208 33.321 66.1208H26.7273C25.7733 66.1208 25 65.3475 25 64.3935V57.7998Z" fill="#437E47" fill-opacity="0.6"/>
<rect x="38.4318" y="78.4318" width="68.1364" height="1.13636" rx="0.568182" fill="#BDD6BD" stroke="#BDD6BD" stroke-width="0.863636"/>
<rect x="38" y="72" width="23" height="3" rx="1.5" fill="#437E47" fill-opacity="0.6"/>
<path d="M25 72.6789C25 71.725 25.7733 70.9517 26.7273 70.9517H33.321C34.275 70.9517 35.0483 71.725 35.0483 72.6789V79.2727C35.0483 80.2266 34.275 81 33.321 81H26.7273C25.7733 81 25 80.2266 25 79.2727V72.6789Z" fill="#437E47" fill-opacity="0.6"/>
</svg>
