<svg width="131" height="102" viewBox="0 0 131 102" fill="none" xmlns="http://www.w3.org/2000/svg">
<rect width="131" height="102" rx="4" fill="white"/>
<rect x="14" y="14" width="103" height="14" rx="7" fill="#437E47" fill-opacity="0.07"/>
<mask id="mask0_4420_219" style="mask-type:alpha" maskUnits="userSpaceOnUse" x="105" y="18" width="7" height="7">
<rect x="105" y="18" width="7" height="7" fill="#437E47"/>
</mask>
<g mask="url(#mask0_4420_219)">
<path d="M111.728 24.7278C111.577 24.8781 111.334 24.8781 111.183 24.7278L109.006 22.55C108.811 22.7056 108.588 22.8287 108.335 22.9194C108.082 23.0102 107.813 23.0556 107.528 23.0556C106.821 23.0556 106.223 22.8109 105.734 22.3217C105.245 21.8322 105 21.2343 105 20.5278C105 19.8213 105.245 19.2233 105.734 18.7338C106.223 18.2446 106.821 18 107.528 18C108.234 18 108.832 18.2446 109.322 18.7338C109.811 19.2233 110.056 19.8213 110.056 20.5278C110.056 20.813 110.01 21.0819 109.919 21.3347C109.829 21.5875 109.706 21.8111 109.55 22.0056L111.728 24.1833C111.878 24.3337 111.878 24.5774 111.728 24.7278V24.7278ZM107.528 22.2778C108.014 22.2778 108.427 22.1077 108.768 21.7676C109.108 21.4271 109.278 21.0139 109.278 20.5278C109.278 20.0417 109.108 19.6284 108.768 19.288C108.427 18.9479 108.014 18.7778 107.528 18.7778C107.042 18.7778 106.628 18.9479 106.288 19.288C105.948 19.6284 105.778 20.0417 105.778 20.5278C105.778 21.0139 105.948 21.4271 106.288 21.7676C106.628 22.1077 107.042 22.2778 107.528 22.2778Z" fill="#437E47" fill-opacity="0.5"/>
</g>
<rect x="20.5" y="35.5" width="60.5876" height="40.5916" rx="1.5" stroke="#437E47" stroke-opacity="0.1"/>
<rect x="28.3983" y="50.5969" width="44.791" height="0.799839" rx="0.39992" stroke="#BDD6BD" stroke-width="0.799839"/>
<rect x="27.9984" y="42.9983" width="29.5941" height="3.19936" rx="1.59968" fill="#437E47" fill-opacity="0.6"/>
<rect x="28.3983" y="68.1934" width="44.791" height="0.799839" rx="0.39992" stroke="#BDD6BD" stroke-width="0.799839"/>
<rect x="27.9984" y="60.595" width="29.5941" height="3.19936" rx="1.59968" fill="#437E47" fill-opacity="0.6"/>
<rect x="51" y="48" width="61.5876" height="41.5916" rx="2" fill="white"/>
<rect x="51.5" y="48.5" width="60.5876" height="40.5916" rx="1.5" stroke="#437E47" stroke-opacity="0.1"/>
<rect x="73.6971" y="64.3262" width="31.0593" height="0.796392" rx="0.398196" stroke="#BDD6BD" stroke-width="0.796392"/>
<rect x="73.299" y="56.4951" width="20.1753" height="3.18557" rx="1.59278" fill="#437E47" fill-opacity="0.6"/>
<path d="M58.433 57.1604C58.433 56.2064 59.2063 55.4331 60.1603 55.4331H67.3756C68.3295 55.4331 69.1028 56.2064 69.1028 57.1604V64.3757C69.1028 65.3296 68.3295 66.103 67.3756 66.103H60.1603C59.2063 66.103 58.433 65.3296 58.433 64.3757V57.1604Z" fill="#437E47" fill-opacity="0.6"/>
<rect x="73.6971" y="82.3779" width="31.0593" height="0.796392" rx="0.398196" stroke="#BDD6BD" stroke-width="0.796392"/>
<rect x="73.299" y="74.5466" width="20.1753" height="3.18557" rx="1.59278" fill="#437E47" fill-opacity="0.6"/>
<path d="M58.433 75.2121C58.433 74.2582 59.2063 73.4849 60.1603 73.4849H67.3756C68.3295 73.4849 69.1028 74.2582 69.1028 75.2121V82.4274C69.1028 83.3814 68.3295 84.1547 67.3756 84.1547H60.1603C59.2063 84.1547 58.433 83.3814 58.433 82.4274V75.2121Z" fill="#437E47" fill-opacity="0.6"/>
</svg>
