<svg fill="none" height="102" viewBox="0 0 131 102" width="131" xmlns="http://www.w3.org/2000/svg" xmlns:xlink="http://www.w3.org/1999/xlink"><mask id="a" height="7" maskUnits="userSpaceOnUse" width="7" x="105" y="18"><path d="m105 18h7v7h-7z" fill="#437e47"/></mask><rect fill="#fff" height="102" rx="4" width="131"/><rect fill="#437e47" fill-opacity=".07" height="14" rx="7" width="103" x="14" y="14"/><g mask="url(#a)"><path d="m111.728 24.7278c-.151.1503-.394.1503-.545 0l-2.177-2.1778c-.195.1556-.418.2787-.671.3694-.253.0908-.522.1362-.807.1362-.707 0-1.305-.2447-1.794-.7339-.489-.4895-.734-1.0874-.734-1.7939s.245-1.3045.734-1.794c.489-.4892 1.087-.7338 1.794-.7338.706 0 1.304.2446 1.794.7338.489.4895.734 1.0875.734 1.794 0 .2852-.046.5541-.137.8069-.09.2528-.213.4764-.369.6709l2.178 2.1777c.15.1504.15.3941 0 .5445zm-4.2-2.45c.486 0 .899-.1701 1.24-.5102.34-.3405.51-.7537.51-1.2398s-.17-.8994-.51-1.2398c-.341-.3401-.754-.5102-1.24-.5102s-.9.1701-1.24.5102c-.34.3404-.51.7537-.51 1.2398s.17.8993.51 1.2398c.34.3401.754.5102 1.24.5102z" fill="#437e47" fill-opacity=".5"/></g><rect height="51" rx="1.5" stroke="#437e47" stroke-opacity=".1" width="102" x="14.5" y="35.5"/><g fill="#437e47" fill-opacity=".6"><rect height="2" rx="1" width="53.7059" x="24" y="65"/><rect height="2" rx="1" width="71" x="24" y="55"/><rect height="2" rx="1" width="81" x="24" y="45"/><rect height="2" rx="1" width="83" x="24" y="75"/></g></svg>